ModelForces
version=1
nRows=4
nColumns=206
inDegrees=no

This file contains the forces exerted on a model during a simulation.

A force is a generalized force, meaning that it can be either a force (N) or a torque (Nm).

Units are S.I. units (second, meters, Newtons, ...)
Angles are in degrees.

endheader
time	glut_med1_r	glut_med2_r	glut_med3_r	glut_min1_r	glut_min2_r	glut_min3_r	semimem_r	semiten_r	bifemlh_r	bifemsh_r	sar_r	add_long_r	add_brev_r	add_mag1_r	add_mag2_r	add_mag3_r	tfl_r	pect_r	grac_r	glut_max1_r	glut_max2_r	glut_max3_r	iliacus_r	psoas_r	quad_fem_r	gem_r	peri_r	rect_fem_r	vas_med_r	vas_int_r	vas_lat_r	med_gas_r	lat_gas_r	soleus_r	tib_post_r	flex_dig_r	flex_hal_r	tib_ant_r	per_brev_r	per_long_r	per_tert_r	ext_dig_r	ext_hal_r	glut_med1_l	glut_med2_l	glut_med3_l	glut_min1_l	glut_min2_l	glut_min3_l	semimem_l	semiten_l	bifemlh_l	bifemsh_l	sar_l	add_long_l	add_brev_l	add_mag1_l	add_mag2_l	add_mag3_l	tfl_l	pect_l	grac_l	glut_max1_l	glut_max2_l	glut_max3_l	iliacus_l	psoas_l	quad_fem_l	gem_l	peri_l	rect_fem_l	vas_med_l	vas_int_l	vas_lat_l	med_gas_l	lat_gas_l	soleus_l	tib_post_l	flex_dig_l	flex_hal_l	tib_ant_l	per_brev_l	per_long_l	per_tert_l	ext_dig_l	ext_hal_l	ercspn_r	ercspn_l	intobl_r	intobl_l	extobl_r	extobl_l	femur_lat_meniscii_l.femur_lat_l.force.X	femur_lat_meniscii_l.femur_lat_l.force.Y	femur_lat_meniscii_l.femur_lat_l.force.Z	femur_lat_meniscii_l.femur_lat_l.torque.X	femur_lat_meniscii_l.femur_lat_l.torque.Y	femur_lat_meniscii_l.femur_lat_l.torque.Z	femur_lat_meniscii_l.meniscus_lat_l.force.X	femur_lat_meniscii_l.meniscus_lat_l.force.Y	femur_lat_meniscii_l.meniscus_lat_l.force.Z	femur_lat_meniscii_l.meniscus_lat_l.torque.X	femur_lat_meniscii_l.meniscus_lat_l.torque.Y	femur_lat_meniscii_l.meniscus_lat_l.torque.Z	femur_med_meniscii_l.femur_med_l.force.X	femur_med_meniscii_l.femur_med_l.force.Y	femur_med_meniscii_l.femur_med_l.force.Z	femur_med_meniscii_l.femur_med_l.torque.X	femur_med_meniscii_l.femur_med_l.torque.Y	femur_med_meniscii_l.femur_med_l.torque.Z	femur_med_meniscii_l.meniscus_med_l.force.X	femur_med_meniscii_l.meniscus_med_l.force.Y	femur_med_meniscii_l.meniscus_med_l.force.Z	femur_med_meniscii_l.meniscus_med_l.torque.X	femur_med_meniscii_l.meniscus_med_l.torque.Y	femur_med_meniscii_l.meniscus_med_l.torque.Z	femur_lat_meniscii_r.femur_lat_r.force.X	femur_lat_meniscii_r.femur_lat_r.force.Y	femur_lat_meniscii_r.femur_lat_r.force.Z	femur_lat_meniscii_r.femur_lat_r.torque.X	femur_lat_meniscii_r.femur_lat_r.torque.Y	femur_lat_meniscii_r.femur_lat_r.torque.Z	femur_lat_meniscii_r.meniscus_lat_r.force.X	femur_lat_meniscii_r.meniscus_lat_r.force.Y	femur_lat_meniscii_r.meniscus_lat_r.force.Z	femur_lat_meniscii_r.meniscus_lat_r.torque.X	femur_lat_meniscii_r.meniscus_lat_r.torque.Y	femur_lat_meniscii_r.meniscus_lat_r.torque.Z	femur_med_meniscii_r.femur_med_r.force.X	femur_med_meniscii_r.femur_med_r.force.Y	femur_med_meniscii_r.femur_med_r.force.Z	femur_med_meniscii_r.femur_med_r.torque.X	femur_med_meniscii_r.femur_med_r.torque.Y	femur_med_meniscii_r.femur_med_r.torque.Z	femur_med_meniscii_r.meniscus_med_r.force.X	femur_med_meniscii_r.meniscus_med_r.force.Y	femur_med_meniscii_r.meniscus_med_r.force.Z	femur_med_meniscii_r.meniscus_med_r.torque.X	femur_med_meniscii_r.meniscus_med_r.torque.Y	femur_med_meniscii_r.meniscus_med_r.torque.Z	femur_med_tibia_l.tibia_upper_l.force.X	femur_med_tibia_l.tibia_upper_l.force.Y	femur_med_tibia_l.tibia_upper_l.force.Z	femur_med_tibia_l.tibia_upper_l.torque.X	femur_med_tibia_l.tibia_upper_l.torque.Y	femur_med_tibia_l.tibia_upper_l.torque.Z	femur_med_tibia_l.femur_med_l.force.X	femur_med_tibia_l.femur_med_l.force.Y	femur_med_tibia_l.femur_med_l.force.Z	femur_med_tibia_l.femur_med_l.torque.X	femur_med_tibia_l.femur_med_l.torque.Y	femur_med_tibia_l.femur_med_l.torque.Z	femur_lat_tibia_l.tibia_upper_l.force.X	femur_lat_tibia_l.tibia_upper_l.force.Y	femur_lat_tibia_l.tibia_upper_l.force.Z	femur_lat_tibia_l.tibia_upper_l.torque.X	femur_lat_tibia_l.tibia_upper_l.torque.Y	femur_lat_tibia_l.tibia_upper_l.torque.Z	femur_lat_tibia_l.femur_lat_l.force.X	femur_lat_tibia_l.femur_lat_l.force.Y	femur_lat_tibia_l.femur_lat_l.force.Z	femur_lat_tibia_l.femur_lat_l.torque.X	femur_lat_tibia_l.femur_lat_l.torque.Y	femur_lat_tibia_l.femur_lat_l.torque.Z	femur_med_tibia_r.tibia_upper_r.force.X	femur_med_tibia_r.tibia_upper_r.force.Y	femur_med_tibia_r.tibia_upper_r.force.Z	femur_med_tibia_r.tibia_upper_r.torque.X	femur_med_tibia_r.tibia_upper_r.torque.Y	femur_med_tibia_r.tibia_upper_r.torque.Z	femur_med_tibia_r.femur_med_r.force.X	femur_med_tibia_r.femur_med_r.force.Y	femur_med_tibia_r.femur_med_r.force.Z	femur_med_tibia_r.femur_med_r.torque.X	femur_med_tibia_r.femur_med_r.torque.Y	femur_med_tibia_r.femur_med_r.torque.Z	femur_lat_tibia_r.tibia_upper_r.force.X	femur_lat_tibia_r.tibia_upper_r.force.Y	femur_lat_tibia_r.tibia_upper_r.force.Z	femur_lat_tibia_r.tibia_upper_r.torque.X	femur_lat_tibia_r.tibia_upper_r.torque.Y	femur_lat_tibia_r.tibia_upper_r.torque.Z	femur_lat_tibia_r.femur_lat_r.force.X	femur_lat_tibia_r.femur_lat_r.force.Y	femur_lat_tibia_r.femur_lat_r.force.Z	femur_lat_tibia_r.femur_lat_r.torque.X	femur_lat_tibia_r.femur_lat_r.torque.Y	femur_lat_tibia_r.femur_lat_r.torque.Z	aACL_R	pACL_R	aPCL_R	pPCL_R	aMCL_R	mMCL_R	pMCL_R	aLCL_R	mLCL_R	pLCL_R	aPCL_L	pPCL_L	aMCL_L	aLCL_L	ground_prescribedForce_-40_fx	ground_prescribedForce_-40_fy	ground_prescribedForce_-40_fz
      0.12016982	     14.64171481	     10.49575598	     11.31851668	      4.80220630	      5.52052136	      6.18452404	      6.55269446	      7.79178515	     11.39412392	     13.00903484	      2.77064584	     10.47248398	      7.43828853	      5.39069038	      4.59660467	      7.86642974	      6.61761987	      4.05993344	      2.79512390	      6.78514230	     10.32649023	      7.78553005	     31.53175801	     23.07272416	      6.63460780	      4.31524500	      8.99129976	     28.03140600	     24.74001942	     26.37314614	     35.57457453	      3.34008750	      1.73799630	     12.02582436	     17.30093918	      8.29378946	      8.85165760	     24.41115747	      8.99793943	     20.32053121	      7.39757248	      7.97494294	      1.78954651	     14.64171481	     10.49575598	     11.31851668	      4.80220630	      5.52052136	      6.18452404	     18.50028574	      7.88090806	     15.98186971	     13.20917228	      2.73723807	     10.47248398	      7.43828853	      5.39069038	      4.59660467	      7.86642974	      6.50341513	      4.05993344	      2.83644651	      6.78514230	     10.32649023	      7.78553005	     31.53175801	     23.07272416	      6.63460780	      4.31524500	      8.99129976	     22.03900621	     12.42681420	     14.40559876	     15.47485998	     32.06094816	     14.90952562	     68.45934434	     58.30224476	      6.81115623	      6.76018582	     17.14144071	      9.25930562	     23.06353618	      3.56449173	     11.61562347	      3.64034041	     45.22350822	     45.22350822	     17.08716099	     17.08716099	     34.13284901	     34.13284901	      2.76307435	     50.99597937	     -9.56042239	      5.21997485	     -0.02578839	      1.48581788	     -2.76307435	    -50.99597937	      9.56042239	     -1.74637766	      0.02558040	     -0.48301696	     -3.31599387	     20.97615968	     -3.40468921	      0.94473225	     -0.02138609	     -1.00501789	      3.31599387	    -20.97615968	      3.40468921	      0.28075727	      0.00368718	     -0.29758878	    219.97030578	    109.40988640	     -5.16287761	     -0.53707822	      5.48005564	     90.10105234	   -219.97030578	   -109.40988640	      5.16287761	      3.02302245	     -6.43136666	     -4.34440380	    347.26266452	    107.39616452	      0.82149425	      2.02716098	     -7.42733337	    141.63986881	   -347.26266452	   -107.39616452	     -0.82149425	     -1.84303398	      5.80321000	     -7.14813256	      0.00000000	      0.00000000	      0.00000000	      0.00000000	      0.00000000	      0.00000000	      0.00000000	      0.00000000	      0.00000000	      0.00000000	      0.00000000	      0.00000000	      0.00000000	      0.00000000	      0.00000000	      0.00000000	      0.00000000	      0.00000000	      0.00000000	      0.00000000	      0.00000000	      0.00000000	      0.00000000	      0.00000000	    -34.52965810	    -35.98734520	     17.25949143	     -0.97584599	      0.64654353	     -0.60731854	     34.52965810	     35.98734520	    -17.25949143	      7.75467798	     -0.57163894	     14.32535705	      0.00000000	      0.00000000	      0.00000000	      0.00000000	      0.00000000	      0.00000000	      0.00000000	      0.00000000	      0.00000000	      0.00000000	      0.00000000	      0.00000000	      0.00000000	      0.00000000	    350.20341380	    197.04131109	      0.00000000	      2.20228433	      0.00000000	      0.00000000	      0.00000000	      0.00000000	      0.00000000	      0.00000000	      0.00000001	      0.00000000	     84.26488000	    -70.70660000	      0.00000000
      0.12356609	     14.32574361	     10.28144599	     11.08488731	      4.70786885	      5.41670934	      6.05129444	      6.42237061	      7.62247826	     11.18862840	     12.76981831	      2.70944586	     10.25640390	      7.29350865	      5.28089942	      4.50102286	      7.69389257	      6.52035372	      3.97959804	      2.73423580	      6.64573198	     10.11397988	      7.62328208	     31.13273929	     22.61805911	      6.50158497	      4.24910991	      8.78547587	     27.53446266	     24.23152731	     25.86222842	     34.92870034	      3.26537399	      1.70897345	     11.86610384	     16.78922579	      8.06222691	      8.65161445	     23.93805916	      8.69736646	     19.70174845	      7.34730426	      7.77723354	      1.74607403	     14.32574361	     10.28144599	     11.08488731	      4.70786885	      5.41670934	      6.05129444	     18.08086307	      7.71169491	     15.62066167	     12.94395934	      2.68371152	     10.25640390	      7.29350865	      5.28089942	      4.50102286	      7.69389257	      6.39614880	      3.97959804	      2.78004293	      6.64573198	     10.11397988	      7.62328208	     31.13273929	     22.61805911	      6.50158497	      4.24910991	      8.78547587	     21.54216255	     12.16523219	     14.09860411	     15.14441636	     31.32982942	     14.56846188	     66.88731899	     57.60009506	      6.63809430	      6.59275557	     16.75861969	      9.04704224	     22.60961691	      3.49449955	     11.35086647	      3.55741116	     44.33322055	     44.33322055	     16.72694445	     16.72694445	     33.80264215	     33.80264215	      2.76307435	     50.99597937	     -9.56042239	      5.21997485	     -0.02578839	      1.48581788	     -2.76307435	    -50.99597937	      9.56042239	     -1.74637766	      0.02558040	     -0.48301696	     -3.31599387	     20.97615968	     -3.40468921	      0.94473225	     -0.02138609	     -1.00501789	      3.31599387	    -20.97615968	      3.40468921	      0.28075727	      0.00368718	     -0.29758878	    219.22082343	    108.29371283	     -5.50841228	     -0.36387460	      5.44886889	     89.79658556	   -219.22082343	   -108.29371283	      5.50841228	      2.97870798	     -6.39497323	     -4.33298019	    347.50537618	    106.71851268	     -1.48800742	      2.95582330	     -7.43406342	    141.74447591	   -347.50537618	   -106.71851268	      1.48800742	     -1.88858261	      5.83544399	     -7.15537170	      0.00000000	      0.00000000	      0.00000000	      0.00000000	      0.00000000	      0.00000000	      0.00000000	      0.00000000	      0.00000000	      0.00000000	      0.00000000	      0.00000000	      0.00000000	      0.00000000	      0.00000000	      0.00000000	      0.00000000	      0.00000000	      0.00000000	      0.00000000	      0.00000000	      0.00000000	      0.00000000	      0.00000000	    -32.87395347	    -34.23168505	     16.94708087	     -0.94409950	      0.62217795	     -0.57787270	     32.87395347	     34.23168505	    -16.94708087	      7.59615861	     -0.54402083	     13.63941016	      0.00000000	      0.00000000	      0.00000000	      0.00000000	      0.00000000	      0.00000000	      0.00000000	      0.00000000	      0.00000000	      0.00000000	      0.00000000	      0.00000000	      0.00000000	      0.00000000	    348.31712453	    195.54119710	      0.00000000	      2.26661035	      0.00000000	      0.00000000	      0.00000000	      0.00000000	      0.00000000	      0.00000000	      0.00000001	      0.00000000	     84.26488000	    -70.70660000	      0.00000000
      0.12609062	     14.10022722	     10.12848592	     10.91815604	      4.64050493	      5.34261588	      5.95620639	      6.33560093	      7.50536930	     11.04775779	     12.62050482	      2.67507368	     10.10219622	      7.19007628	      5.20254510	      4.43282196	      7.57072574	      6.45319436	      3.92224270	      2.69494446	      6.54625744	      9.96234216	      7.50750951	     30.84818324	     22.29374782	      6.40662703	      4.20195710	      8.63818835	     27.20019025	     23.91875928	     25.55349741	     34.53653536	      3.22271767	      1.69220461	     11.77016272	     16.41311097	      7.88675108	      8.50303162	     23.58287350	      8.49330324	     19.26782787	      7.35037919	      7.66667467	      1.72010321	     14.10022722	     10.12848592	     10.91815604	      4.64050493	      5.34261588	      5.95620639	     17.78088829	      7.59093143	     15.36250892	     12.75464627	      2.64548406	     10.10219622	      7.19007628	      5.20254510	      4.43282196	      7.57072574	      6.31958293	      3.92224270	      2.73977521	      6.54625744	      9.96234216	      7.50750951	     30.84818324	     22.29374782	      6.40662703	      4.20195710	      8.63818835	     21.18715049	     11.97864245	     13.87960712	     14.90874313	     30.80605448	     14.32415779	     65.76243528	     57.09885755	      6.51427175	      6.47311653	     16.48519764	      8.89530352	     22.28541299	      3.44457380	     11.16147072	      3.49811905	     43.69751788	     43.69751788	     16.46987947	     16.46987947	     33.56722546	     33.56722546	      2.76307435	     50.99597937	     -9.56042239	      5.21997485	     -0.02578839	      1.48581788	     -2.76307435	    -50.99597937	      9.56042239	     -1.74637766	      0.02558040	     -0.48301696	     -3.31599387	     20.97615968	     -3.40468921	      0.94473225	     -0.02138609	     -1.00501789	      3.31599387	    -20.97615968	      3.40468921	      0.28075727	      0.00368718	     -0.29758878	    217.92055903	    107.91763542	     -3.51150446	     -1.18058099	      5.43329266	     89.25956464	   -217.92055903	   -107.91763542	      3.51150446	      3.03001986	     -6.40317669	     -4.29223307	    346.57678875	    107.25410932	      0.18099315	      2.27221627	     -7.38203068	    141.35592731	   -346.57678875	   -107.25410932	     -0.18099315	     -1.84060250	      5.76077975	     -7.10492556	      0.00000000	      0.00000000	      0.00000000	      0.00000000	      0.00000000	      0.00000000	      0.00000000	      0.00000000	      0.00000000	      0.00000000	      0.00000000	      0.00000000	      0.00000000	      0.00000000	      0.00000000	      0.00000000	      0.00000000	      0.00000000	      0.00000000	      0.00000000	      0.00000000	      0.00000000	      0.00000000	      0.00000000	    -31.66898761	    -33.18822104	     16.26766770	     -0.90649160	      0.59580439	     -0.55227991	     31.66898761	     33.18822104	    -16.26766770	      7.29422262	     -0.52148649	     13.13917665	      0.00000000	      0.00000000	      0.00000000	      0.00000000	      0.00000000	      0.00000000	      0.00000000	      0.00000000	      0.00000000	      0.00000000	      0.00000000	      0.00000000	      0.00000000	      0.00000000	    347.09632047	    194.88820399	      0.00000000	      2.17760035	      0.00000000	      0.00000000	      0.00000000	      0.00000000	      0.00000000	      0.00000000	      0.00000001	      0.00000000	     84.26488000	    -70.70660000	      0.00000000
      0.12861515	     13.88237520	      9.98072092	     10.75710218	      4.57540726	      5.27103930	      5.86435076	      6.24183765	      7.38507016	     10.91376058	     12.46061871	      2.63043564	      9.95323905	      7.09012725	      5.12685764	      4.36695302	      7.45172726	      6.38573147	      3.86682210	      2.65136780	      6.45018341	      9.81588536	      7.39569310	     30.57348217	     21.98061665	      6.31488193	      4.15644686	      8.49559323	     26.87244406	     23.56843038	     25.21090759	     34.11037144	      3.17781352	      1.67534273	     11.68044438	     16.04864632	      7.71031410	      8.35644173	     23.25126769	      8.29507426	     18.84554108	      7.31451452	      7.58732164	      1.70004126	     13.88237520	      9.98072092	     10.75710218	      4.57540726	      5.27103930	      5.86435076	     17.49060923	      7.47427835	     15.11284873	     12.57174514	      2.60854172	      9.95323905	      7.09012725	      5.12685764	      4.36695302	      7.45172726	      6.24561573	      3.86682210	      2.70086677	      6.45018341	      9.81588536	      7.39569310	     30.57348217	     21.98061665	      6.31488193	      4.15644686	      8.49559323	     20.84388010	     11.79848011	     13.66814405	     14.68121905	     30.29848589	     14.08744051	     64.67343751	     56.61459412	      6.39438293	      6.35740530	     16.22091310	      8.74852636	     21.97202198	      3.39636841	     10.97816271	      3.44075748	     43.08321087	     43.08321087	     16.22157383	     16.22157383	     33.34001479	     33.34001479	      2.76307435	     50.99597937	     -9.56042239	      5.21997485	     -0.02578839	      1.48581788	     -2.76307435	    -50.99597937	      9.56042239	     -1.74637766	      0.02558040	     -0.48301696	     -3.31599387	     20.97615968	     -3.40468921	      0.94473225	     -0.02138609	     -1.00501789	      3.31599387	    -20.97615968	      3.40468921	      0.28075727	      0.00368718	     -0.29758878	    217.63933082	    106.59482037	     -4.54230011	     -0.71929564	      5.40944453	     89.15568847	   -217.63933082	   -106.59482037	      4.54230011	      2.95862611	     -6.36595815	     -4.30726859	    346.97221221	    106.09138547	     -2.49132511	      3.34521289	     -7.40063139	    141.52861805	   -346.97221221	   -106.09138547	      2.49132511	     -1.89409232	      5.81075435	     -7.13176409	      0.00000000	      0.00000000	      0.00000000	      0.00000000	      0.00000000	      0.00000000	      0.00000000	      0.00000000	      0.00000000	      0.00000000	      0.00000000	      0.00000000	      0.00000000	      0.00000000	      0.00000000	      0.00000000	      0.00000000	      0.00000000	      0.00000000	      0.00000000	      0.00000000	      0.00000000	      0.00000000	      0.00000000	    -30.39841629	    -31.80404208	     16.10508765	     -0.88489822	      0.57875899	     -0.53061017	     30.39841629	     31.80404208	    -16.10508765	      7.20459309	     -0.50082209	     12.61296751	      0.00000000	      0.00000000	      0.00000000	      0.00000000	      0.00000000	      0.00000000	      0.00000000	      0.00000000	      0.00000000	      0.00000000	      0.00000000	      0.00000000	      0.00000000	      0.00000000	    345.63188016	    193.55540543	      0.00000000	      2.19819418	      0.00000000	      0.00000000	      0.00000000	      0.00000000	      0.00000000	      0.00000000	      0.00000001	      0.00000000	     84.26488000	    -70.70660000	      0.00000000
